grf
version=1
nRows=19
nColumns=37
inDegrees=no
endheader
time	ground_force_1_vx	ground_force_1_vy	ground_force_1_vz	ground_force_1_px	ground_force_1_py	ground_force_1_pz	ground_moment_1_mx	ground_moment_1_my	ground_moment_1_mz	ground_force_2_vx	ground_force_2_vy	ground_force_2_vz	ground_force_2_px	ground_force_2_py	ground_force_2_pz	ground_moment_2_mx	ground_moment_2_my	ground_moment_2_mz	ground_force_3_vx	ground_force_3_vy	ground_force_3_vz	ground_force_3_px	ground_force_3_py	ground_force_3_pz	ground_moment_3_mx	ground_moment_3_my	ground_moment_3_mz	ground_force_4_vx	ground_force_4_vy	ground_force_4_vz	ground_force_4_px	ground_force_4_py	ground_force_4_pz	ground_moment_4_mx	ground_moment_4_my	ground_moment_4_mz
      2.24000000	      0.00000000	     -0.00000000	      0.00000000	      0.00000000	      0.00000000	      0.00000000	      0.00000000	      0.00000000	      0.00000000	      2.58335662	     72.82140350	   -416.03112793	   -343.96663857	  -1185.41674327	      0.00000000	      0.00000000	      0.00000000	    525.61721714	     -3.27272677	    -76.32519503	   -440.62179565	   -356.12308614	   -609.98000603	      0.00000000	      0.00000000	     -0.00000000	  -2181.81247823	      0.00000000	     -0.00000000	      0.00000000	      0.00000000	      0.00000000	      0.00000000	      0.00000000	      0.00000000	      0.00000000
      2.25000000	      0.00000000	     -0.00000000	      0.00000000	      0.00000000	      0.00000000	      0.00000000	      0.00000000	      0.00000000	      0.00000000	      4.45879269	     72.28129578	   -417.45181274	   -346.22729470	  -1185.06769339	      0.00000000	      0.00000000	      0.00000000	    452.70332261	     -3.72230878	    -75.33486143	   -435.37112427	   -356.88234377	   -611.00071049	      0.00000000	      0.00000000	     -0.00000000	  -2104.07231488	      0.00000000	     -0.00000000	      0.00000000	      0.00000000	      0.00000000	      0.00000000	      0.00000000	      0.00000000	      0.00000000
      2.26000000	      0.00000000	     -0.00000000	      0.00000000	      0.00000000	      0.00000000	      0.00000000	      0.00000000	      0.00000000	      0.00000000	      5.88145161	     71.04175568	   -417.44592285	   -348.41532794	  -1184.58321639	      0.00000000	      0.00000000	      0.00000000	    380.71257743	     -3.19359471	    -73.84186526	   -429.79263306	   -357.54760655	   -612.26345707	      0.00000000	      0.00000000	     -0.00000000	  -2209.16298250	      0.00000000	     -0.00000000	      0.00000000	      0.00000000	      0.00000000	      0.00000000	      0.00000000	      0.00000000	      0.00000000
      2.27000000	      0.00000000	     -0.00000000	      0.00000000	      0.00000000	      0.00000000	      0.00000000	      0.00000000	      0.00000000	      0.00000000	      7.30471230	     70.85415649	   -416.06387329	   -350.77472632	  -1182.76069501	      0.00000000	      0.00000000	      0.00000000	    322.07381561	     -2.50096800	    -71.10358407	   -422.49176025	   -358.59574367	   -612.35384533	      0.00000000	      0.00000000	     -0.00000000	  -2148.64250958	      0.00000000	     -0.00000000	      0.00000000	      0.00000000	      0.00000000	      0.00000000	      0.00000000	      0.00000000	      0.00000000
      2.28000000	      0.00000000	     -0.00000000	      0.00000000	      0.00000000	      0.00000000	      0.00000000	      0.00000000	      0.00000000	      0.00000000	      7.76269913	     70.14701080	   -415.32864380	   -351.10832185	  -1182.71231660	      0.00000000	      0.00000000	      0.00000000	    177.40894688	     -3.28087601	    -69.15303774	   -417.59658813	   -359.10538501	   -612.89501884	      0.00000000	      0.00000000	     -0.00000000	  -2116.84963029	      0.00000000	     -0.00000000	      0.00000000	      0.00000000	      0.00000000	      0.00000000	      0.00000000	      0.00000000	      0.00000000
      2.29000000	      0.00000000	     -0.00000000	      0.00000000	      0.00000000	      0.00000000	      0.00000000	      0.00000000	      0.00000000	      0.00000000	      7.76380110	     69.87574768	   -413.94165039	   -353.11433703	  -1182.35589220	      0.00000000	      0.00000000	      0.00000000	    159.70379034	     -2.67034922	    -66.59199501	   -410.93624878	   -360.12687039	   -613.72176701	      0.00000000	      0.00000000	     -0.00000000	  -2043.91910144	      0.00000000	     -0.00000000	      0.00000000	      0.00000000	      0.00000000	      0.00000000	      0.00000000	      0.00000000	      0.00000000
      2.30000000	      0.00000000	     -0.00000000	      0.00000000	      0.00000000	      0.00000000	      0.00000000	      0.00000000	      0.00000000	      0.00000000	      7.76131439	     69.61083984	   -411.10144043	   -354.22398562	  -1181.06642490	      0.00000000	      0.00000000	     -0.00000000	   -289.00027085	     -2.75470705	    -64.91528296	   -402.56265259	   -360.52169318	   -613.93814092	      0.00000000	      0.00000000	     -0.00000000	  -2042.09095369	      0.00000000	     -0.00000000	      0.00000000	      0.00000000	      0.00000000	      0.00000000	      0.00000000	      0.00000000	      0.00000000
      2.31000000	      0.00000000	     -0.00000000	      0.00000000	      0.00000000	      0.00000000	      0.00000000	      0.00000000	      0.00000000	      0.00000000	      8.38782310	     68.62533569	   -407.22857666	   -355.94247630	  -1179.26532902	      0.00000000	      0.00000000	     -0.00000000	   -252.60596958	     -2.75110390	    -62.97654319	   -393.85137939	   -361.41930483	   -614.44135607	      0.00000000	      0.00000000	     -0.00000000	  -1889.93534944	      0.00000000	     -0.00000000	      0.00000000	      0.00000000	      0.00000000	      0.00000000	      0.00000000	      0.00000000	      0.00000000
      2.32000000	      0.00000000	     -0.00000000	      0.00000000	      0.00000000	      0.00000000	      0.00000000	      0.00000000	      0.00000000	      0.00000000	      8.20826244	     67.47439575	   -406.13565063	   -355.54628876	  -1180.63177631	      0.00000000	      0.00000000	     -0.00000000	   -560.27639945	     -2.48108021	    -61.82330301	   -386.87112427	   -360.55252428	   -614.66285190	      0.00000000	      0.00000000	     -0.00000000	  -1719.38518570	      0.00000000	     -0.00000000	      0.00000000	      0.00000000	      0.00000000	      0.00000000	      0.00000000	      0.00000000	      0.00000000
      2.33000000	      0.00000000	     -0.00000000	      0.00000000	      0.00000000	      0.00000000	      0.00000000	      0.00000000	      0.00000000	      0.00000000	      8.03271484	     67.20658875	   -400.86224365	   -356.31333702	  -1179.09992437	      0.00000000	      0.00000000	     -0.00000000	   -658.52889771	     -3.19519749	    -61.64853640	   -382.66384888	   -361.76860717	   -615.56979773	      0.00000000	      0.00000000	     -0.00000000	  -1577.67359442	      0.00000000	     -0.00000000	      0.00000000	      0.00000000	      0.00000000	      0.00000000	      0.00000000	      0.00000000	      0.00000000
      2.34000000	      0.00000000	     -0.00000000	      0.00000000	      0.00000000	      0.00000000	      0.00000000	      0.00000000	      0.00000000	      0.00000000	      8.11752510	     66.57536316	   -395.91973877	   -356.57420319	  -1178.58770780	      0.00000000	      0.00000000	     -0.00000000	   -689.35697822	     -3.90532126	    -61.56225170	   -379.88766479	   -361.72667583	   -614.68715581	      0.00000000	      0.00000000	     -0.00000000	  -1543.31391520	      0.00000000	     -0.00000000	      0.00000000	      0.00000000	      0.00000000	      0.00000000	      0.00000000	      0.00000000	      0.00000000
      2.35000000	      0.00000000	     -0.00000000	      0.00000000	      0.00000000	      0.00000000	      0.00000000	      0.00000000	      0.00000000	      0.00000000	      7.31579018	     65.50768280	   -390.62118530	   -358.36790500	  -1179.51572535	      0.00000000	      0.00000000	     -0.00000000	  -1069.04265764	     -4.43207849	    -61.47131690	   -378.13122559	   -363.01058345	   -615.60857984	      0.00000000	      0.00000000	     -0.00000000	  -1495.96696677	      0.00000000	     -0.00000000	      0.00000000	      0.00000000	      0.00000000	      0.00000000	      0.00000000	      0.00000000	      0.00000000
      2.36000000	      0.00000000	     -0.00000000	      0.00000000	      0.00000000	      0.00000000	      0.00000000	      0.00000000	      0.00000000	      0.00000000	      5.80152559	     64.35215759	   -378.97335815	   -359.49083470	  -1177.10304634	      0.00000000	      0.00000000	     -0.00000000	   -843.68237703	     -5.14614313	    -61.91532090	   -380.92263794	   -364.17322160	   -615.50338537	      0.00000000	      0.00000000	     -0.00000000	  -1449.52764658	      0.00000000	     -0.00000000	      0.00000000	      0.00000000	      0.00000000	      0.00000000	      0.00000000	      0.00000000	      0.00000000
      2.37000000	      0.00000000	     -0.00000000	      0.00000000	      0.00000000	      0.00000000	      0.00000000	      0.00000000	      0.00000000	      0.00000000	      4.45920134	     63.63805008	   -373.31332397	   -358.88276494	  -1176.57145481	      0.00000000	      0.00000000	     -0.00000000	   -980.30785368	     -4.79070353	    -62.62165028	   -386.15921021	   -365.05631056	   -616.27735727	      0.00000000	      0.00000000	     -0.00000000	  -1397.31822114	      0.00000000	     -0.00000000	      0.00000000	      0.00000000	      0.00000000	      0.00000000	      0.00000000	      0.00000000	      0.00000000
      2.38000000	      0.00000000	     -0.00000000	      0.00000000	      0.00000000	      0.00000000	      0.00000000	      0.00000000	      0.00000000	      0.00000000	      2.85445118	     63.81708145	   -373.30895996	   -359.29162725	  -1176.90235460	      0.00000000	     -0.00000000	     -0.00000000	  -1107.34046981	     -3.72644056	    -64.21121946	   -394.19372559	   -365.79005088	   -616.30765783	      0.00000000	      0.00000000	     -0.00000000	  -1250.56046381	      0.00000000	     -0.00000000	      0.00000000	      0.00000000	      0.00000000	      0.00000000	      0.00000000	      0.00000000	      0.00000000
      2.39000000	      0.00000000	     -0.00000000	      0.00000000	      0.00000000	      0.00000000	      0.00000000	      0.00000000	      0.00000000	      0.00000000	      1.69523454	     63.37187576	   -376.13635254	   -360.27219730	  -1176.30628639	      0.00000000	      0.00000000	     -0.00000000	  -1359.84274162	     -2.92746164	    -65.62310765	   -400.82318115	   -365.60480762	   -615.90339710	      0.00000000	      0.00000000	     -0.00000000	  -1375.99818819	      0.00000000	     -0.00000000	      0.00000000	      0.00000000	      0.00000000	      0.00000000	      0.00000000	      0.00000000	      0.00000000
      2.40000000	      0.00000000	     -0.00000000	      0.00000000	      0.00000000	      0.00000000	      0.00000000	      0.00000000	      0.00000000	      0.00000000	      1.60603881	     63.10457230	   -378.95947266	   -359.36597050	  -1177.29089471	      0.00000000	      0.00000000	     -0.00000000	  -1508.95245332	     -2.48381647	    -66.41781594	   -400.47741699	   -366.90727229	   -617.96924228	      0.00000000	      0.00000000	      0.00000000	  -1345.86962778	      0.00000000	     -0.00000000	      0.00000000	      0.00000000	      0.00000000	      0.00000000	      0.00000000	      0.00000000	      0.00000000
      2.41000000	      0.00000000	     -0.00000000	      0.00000000	      0.00000000	      0.00000000	      0.00000000	      0.00000000	      0.00000000	      0.00000000	      2.67788649	     62.48131180	   -377.54672241	   -362.07522270	  -1175.48838249	      0.00000000	      0.00000000	     -0.00000000	  -1449.59274394	     -1.77490507	    -66.59439071	   -403.27081299	   -368.07475682	   -616.99796187	      0.00000000	      0.00000000	     -0.00000000	  -1555.62667900	      0.00000000	     -0.00000000	      0.00000000	      0.00000000	      0.00000000	      0.00000000	      0.00000000	      0.00000000	      0.00000000
      2.42000000	      0.00000000	     -0.00000000	      0.00000000	      0.00000000	      0.00000000	      0.00000000	      0.00000000	      0.00000000	      0.00000000	      4.36888599	     61.05467606	   -376.49255371	   -363.39514180	  -1174.85782110	      0.00000000	      0.00000000	     -0.00000000	  -1189.37821977	     -1.24371331	    -66.06316365	   -402.56723022	   -368.41323805	   -617.05442760	      0.00000000	     -0.00000000	     -0.00000000	  -1630.35764327	      0.00000000	     -0.00000000	      0.00000000	      0.00000000	      0.00000000	      0.00000000	      0.00000000	      0.00000000	      0.00000000
